<svg xmlns="http://www.w3.org/2000/svg" xmlns:xlink="http://www.w3.org/1999/xlink" width="1200" zoomAndPan="magnify" viewBox="0 0 900 449.999984" height="600" preserveAspectRatio="xMidYMid meet" version="1.0"><defs><clipPath id="d42febc0e5"><path d="M 785.359375 29 L 861 29 L 861 67 L 785.359375 67 Z M 785.359375 29 " clip-rule="nonzero"/></clipPath><clipPath id="817b43b7cd"><path d="M 660 321 L 900 321 L 900 450 L 660 450 Z M 660 321 " clip-rule="nonzero"/></clipPath><clipPath id="5019847505"><path d="M 807.144531 196.78125 L 1057.488281 337.445312 L 902.492188 613.300781 L 652.148438 472.632812 Z M 807.144531 196.78125 " clip-rule="nonzero"/></clipPath><clipPath id="6de7d4fd43"><path d="M 807.144531 196.78125 L 1057.488281 337.445312 L 902.492188 613.300781 L 652.148438 472.632812 Z M 807.144531 196.78125 " clip-rule="nonzero"/></clipPath><clipPath id="8c688b7c9b"><path d="M 673 242 L 900 242 L 900 443 L 673 443 Z M 673 242 " clip-rule="nonzero"/></clipPath><clipPath id="92028012fd"><path d="M 820.5625 242.347656 L 939.171875 327.992188 L 792.183594 531.5625 L 673.570312 445.917969 Z M 820.5625 242.347656 " clip-rule="nonzero"/></clipPath><clipPath id="757249d3fd"><path d="M 802.792969 26.089844 L 1035.601562 194.195312 L 792.210938 531.269531 L 559.402344 363.167969 Z M 802.792969 26.089844 " clip-rule="nonzero"/></clipPath><clipPath id="9866bc6d2b"><path d="M 348 63.175781 L 551 63.175781 L 551 103.675781 L 348 103.675781 Z M 348 63.175781 " clip-rule="nonzero"/></clipPath><clipPath id="9dcd0c3fb4"><path d="M 45 324.292969 L 61 324.292969 L 61 355 L 45 355 Z M 45 324.292969 " clip-rule="nonzero"/></clipPath><clipPath id="b39793d407"><path d="M 45 358 L 61 358 L 61 388.792969 L 45 388.792969 Z M 45 358 " clip-rule="nonzero"/></clipPath><clipPath id="76ce2340d6"><path d="M 54 348 L 84.757812 348 L 84.757812 364 L 54 364 Z M 54 348 " clip-rule="nonzero"/></clipPath><clipPath id="c5f4a97242"><path d="M 20.257812 347 L 51 347 L 51 363 L 20.257812 363 Z M 20.257812 347 " clip-rule="nonzero"/></clipPath><clipPath id="765aa20a29"><path d="M 67 368.875 L 105 368.875 L 105 445 L 67 445 Z M 67 368.875 " clip-rule="nonzero"/></clipPath><clipPath id="f7c930140c"><path d="M 90 430 L 165.761719 430 L 165.761719 450 L 90 450 Z M 90 430 " clip-rule="nonzero"/></clipPath><clipPath id="8a895c71d8"><path d="M 0 0 L 72 0 L 72 103 L 0 103 Z M 0 0 " clip-rule="nonzero"/></clipPath><clipPath id="a12797bce5"><path d="M 57.605469 -122.390625 L 118.578125 40.574219 L -50.011719 103.648438 L -110.980469 -59.320312 Z M 57.605469 -122.390625 " clip-rule="nonzero"/></clipPath><clipPath id="d00c2348c0"><path d="M 57.605469 -122.390625 L 118.578125 40.574219 L -50.011719 103.648438 L -110.980469 -59.320312 Z M 57.605469 -122.390625 " clip-rule="nonzero"/></clipPath><clipPath id="013c3c45ed"><path d="M 0 0 L 127 0 L 127 147 L 0 147 Z M 0 0 " clip-rule="nonzero"/></clipPath><clipPath id="83c6d8a104"><path d="M 113.457031 -78.023438 L 174.429688 84.941406 L 5.839844 148.015625 L -55.128906 -14.953125 Z M 113.457031 -78.023438 " clip-rule="nonzero"/></clipPath><clipPath id="bedc0b900f"><path d="M 113.457031 -78.023438 L 174.429688 84.941406 L 5.839844 148.015625 L -55.128906 -14.953125 Z M 113.457031 -78.023438 " clip-rule="nonzero"/></clipPath><clipPath id="7265fafcec"><path d="M 859 20.164062 L 875 20.164062 L 875 51 L 859 51 Z M 859 20.164062 " clip-rule="nonzero"/></clipPath><clipPath id="aa3df27ece"><path d="M 858 54 L 874 54 L 874 84.664062 L 858 84.664062 Z M 858 54 " clip-rule="nonzero"/></clipPath><clipPath id="55a05280e0"><path d="M 868 44 L 898.671875 44 L 898.671875 60 L 868 60 Z M 868 44 " clip-rule="nonzero"/></clipPath><clipPath id="4e4912d643"><path d="M 834.171875 43 L 865 43 L 865 59 L 834.171875 59 Z M 834.171875 43 " clip-rule="nonzero"/></clipPath></defs><path fill="#cb6ce6" d="M 849.492188 -20.210938 C 853.347656 -31.460938 881.683594 -31.460938 885.207031 -20.210938 C 888.726562 -8.960938 875.382812 36.023438 870.625 47.273438 L 862.09375 47.273438 C 857.332031 36.023438 845.640625 -8.960938 849.492188 -20.210938 Z M 849.492188 -20.210938 " fill-opacity="1" fill-rule="evenodd"/><path fill="#cb6ce6" d="M 884.410156 124.386719 C 880.496094 135.546875 851.699219 135.546875 848.121094 124.386719 C 844.542969 113.226562 858.101562 68.59375 862.9375 57.433594 L 871.605469 57.433594 C 876.445312 68.59375 888.324219 113.226562 884.410156 124.386719 Z M 884.410156 124.386719 " fill-opacity="1" fill-rule="evenodd"/><path fill="#cb6ce6" d="M 938.460938 33.707031 C 949.53125 37.621094 949.53125 66.417969 938.460938 69.996094 C 927.386719 73.574219 883.109375 60.015625 872.039062 55.179688 L 872.039062 46.507812 C 883.109375 41.671875 927.386719 29.789062 938.460938 33.707031 Z M 938.460938 33.707031 " fill-opacity="1" fill-rule="evenodd"/><g clip-path="url(#d42febc0e5)"><path fill="#cb6ce6" d="M 794.261719 66.21875 C 783.1875 62.304688 783.1875 33.507812 794.261719 29.929688 C 805.332031 26.351562 849.609375 39.910156 860.679688 44.746094 L 860.679688 53.417969 C 849.609375 58.253906 805.332031 70.132812 794.261719 66.21875 Z M 794.261719 66.21875 " fill-opacity="1" fill-rule="evenodd"/></g><path fill="#cb6ce6" d="M 899.082031 -15.660156 C 909.015625 -22.183594 931.574219 -4.761719 927.507812 6.296875 C 923.445312 17.351562 885.359375 44.703125 874.703125 50.667969 L 867.914062 45.425781 C 870.992188 33.605469 889.148438 -9.136719 899.082031 -15.660156 Z M 899.082031 -15.660156 " fill-opacity="1" fill-rule="evenodd"/><path fill="#cb6ce6" d="M 925.1875 92.914062 C 929.941406 103.808594 908.972656 123.109375 898.757812 117.238281 C 888.542969 111.371094 867.992188 69.226562 863.90625 57.71875 L 870.222656 51.90625 C 881.351562 56.929688 920.429688 82.023438 925.1875 92.914062 Z M 925.1875 92.914062 " fill-opacity="1" fill-rule="evenodd"/><path fill="#cb6ce6" d="M 831.734375 -16.367188 C 821.800781 -22.890625 799.246094 -5.46875 803.308594 5.589844 C 807.375 16.644531 845.457031 43.996094 856.113281 49.960938 L 862.90625 44.71875 C 859.828125 32.898438 841.671875 -9.84375 831.734375 -16.367188 Z M 831.734375 -16.367188 " fill-opacity="1" fill-rule="evenodd"/><path fill="#cb6ce6" d="M 803.78125 93.625 C 799.023438 104.515625 819.992188 123.816406 830.207031 117.945312 C 840.421875 112.078125 860.972656 69.933594 865.058594 58.425781 L 858.746094 52.613281 C 847.613281 57.636719 808.535156 82.730469 803.78125 93.625 Z M 803.78125 93.625 " fill-opacity="1" fill-rule="evenodd"/><path fill="#cb6ce6" d="M 856.496094 51.457031 C 856.496094 46.175781 861.046875 41.890625 866.660156 41.890625 C 872.269531 41.890625 876.820312 46.175781 876.820312 51.457031 C 876.820312 56.738281 872.269531 61.019531 866.660156 61.019531 C 861.046875 61.019531 856.496094 56.738281 856.496094 51.457031 Z M 856.496094 51.457031 " fill-opacity="1" fill-rule="evenodd"/><g clip-path="url(#817b43b7cd)"><g clip-path="url(#5019847505)"><g clip-path="url(#6de7d4fd43)"><path fill="#cb6ce6" d="M 798.476562 324.683594 C 798.476562 324.683594 836.085938 324.097656 883.609375 326.820312 C 931.136719 329.546875 982.015625 317.742188 995.769531 322.421875 C 1009.523438 327.105469 1046.664062 331.367188 1046.664062 331.367188 L 906.863281 605.140625 C 906.863281 605.140625 836.769531 572.046875 802.140625 554.753906 C 767.515625 537.457031 730.46875 503.863281 706.519531 488.34375 C 682.566406 472.824219 660.449219 458.234375 660.449219 458.234375 Z M 798.476562 324.683594 " fill-opacity="1" fill-rule="nonzero"/></g></g></g><g clip-path="url(#8c688b7c9b)"><g clip-path="url(#92028012fd)"><g clip-path="url(#757249d3fd)"><path fill="#ecc8f6" d="M 619.707031 404.578125 C 600.34375 390.441406 583.175781 373.46875 568.664062 354.300781 L 567.453125 352.8125 L 589.289062 336.714844 L 590.375 337.953125 C 591.132812 338.804688 670.632812 426.097656 733.964844 407.628906 C 798.824219 388.738281 836.835938 376.84375 861.78125 352.007812 C 863.917969 349.890625 866.128906 347.675781 868.4375 345.53125 C 893.394531 321.3125 921.632812 293.820312 916.902344 248.011719 C 911.722656 197.761719 891.375 116.585938 891.164062 115.824219 L 890.796875 114.640625 L 907.875 101.964844 L 908.902344 103.925781 C 909.285156 104.660156 944.800781 175.597656 942.636719 247.839844 C 940.390625 322.308594 914.796875 360.707031 833.242188 412.21875 C 791.851562 438.296875 743.710938 447.757812 697.363281 438.6875 C 669.199219 433.144531 642.710938 421.488281 619.707031 404.578125 Z M 572.707031 353.558594 C 607.074219 397.585938 650.300781 425.753906 698.015625 435.042969 C 743.34375 443.832031 790.648438 434.683594 831.234375 409.089844 C 911.589844 358.390625 936.675781 320.695312 938.902344 247.734375 C 940.882812 183.136719 912.195312 119.417969 906.566406 107.578125 L 895.101562 116.070312 C 897.660156 126.460938 915.777344 200.382812 920.726562 247.570312 C 925.664062 295.203125 895.433594 324.613281 871.253906 348.175781 C 869.046875 350.390625 866.734375 352.535156 864.597656 354.652344 C 838.871094 380.144531 800.617188 392.167969 735.167969 411.242188 C 707.941406 419.183594 673.867188 409.371094 636.40625 382.933594 C 619.300781 370.734375 603.351562 356.929688 588.933594 341.640625 Z M 572.707031 353.558594 " fill-opacity="1" fill-rule="nonzero"/></g></g></g><g clip-path="url(#9866bc6d2b)"><path fill="#ecc8f6" d="M 376.722656 73.988281 L 378.003906 73.988281 Z M 367.59375 103.675781 C 366.472656 103.675781 365.511719 103.675781 364.386719 103.515625 C 363.425781 103.515625 362.464844 103.355469 361.503906 103.355469 C 359.421875 102.871094 357.5 102.226562 355.578125 101.417969 C 354.617188 101.09375 353.816406 100.609375 352.855469 100.128906 C 351.894531 99.644531 351.253906 98.835938 350.453125 98.03125 C 349.332031 96.253906 348.851562 94.320312 348.851562 92.222656 C 348.53125 90.125 348.53125 88.1875 348.851562 86.089844 C 349.011719 84.960938 349.332031 83.832031 349.652344 82.699219 C 350.132812 81.570312 350.613281 80.441406 351.253906 79.472656 C 352.214844 77.859375 353.335938 76.246094 354.617188 74.957031 C 355.257812 74.308594 355.898438 73.664062 356.699219 73.179688 C 357.5 72.535156 358.460938 72.050781 359.421875 71.730469 C 361.34375 70.921875 363.585938 70.4375 365.671875 70.277344 C 367.433594 70.113281 369.355469 70.113281 371.117188 69.953125 C 373.199219 69.792969 375.28125 69.632812 377.363281 69.632812 C 379.445312 69.632812 381.367188 69.632812 383.289062 69.46875 C 385.210938 69.308594 387.292969 69.46875 389.21875 69.46875 L 395.464844 69.308594 C 397.867188 69.308594 400.109375 69.148438 402.511719 69.148438 C 405.554688 68.984375 408.597656 68.664062 411.640625 68.339844 C 414.6875 68.015625 418.210938 68.015625 421.414062 67.855469 L 421.09375 67.855469 C 423.015625 67.695312 424.9375 67.695312 426.859375 67.535156 C 428.78125 67.371094 430.863281 67.050781 432.945312 66.886719 C 437.113281 66.566406 441.277344 66.242188 445.441406 65.921875 C 449.605469 65.597656 453.769531 65.273438 457.933594 64.953125 C 462.101562 64.628906 466.105469 64.304688 470.269531 64.144531 L 471.710938 64.144531 C 473.792969 63.984375 475.714844 63.824219 477.636719 63.824219 C 479.558594 63.824219 481.800781 63.660156 483.722656 63.5 C 485.648438 63.339844 487.890625 63.339844 489.972656 63.339844 C 492.054688 63.339844 493.976562 63.339844 495.898438 63.339844 C 503.90625 63.175781 512.078125 63.5 520.085938 64.46875 L 525.691406 65.273438 C 527.292969 65.4375 528.734375 65.757812 530.335938 65.921875 C 530.496094 65.757812 530.65625 65.757812 530.65625 65.757812 C 531.296875 65.4375 531.9375 65.4375 532.582031 65.757812 C 532.742188 65.757812 532.902344 65.921875 533.0625 66.082031 C 533.703125 66.242188 534.183594 66.402344 534.824219 66.566406 C 535.785156 66.886719 536.746094 67.050781 537.707031 67.371094 C 539.628906 68.015625 541.550781 68.824219 543.3125 70.113281 C 544.113281 70.597656 544.914062 71.246094 545.554688 72.050781 C 546.355469 72.695312 546.996094 73.503906 547.796875 74.472656 C 549.078125 76.246094 549.878906 78.183594 550.359375 80.121094 C 551 82.054688 551.160156 84.3125 550.839844 86.25 C 550.679688 87.21875 550.519531 88.1875 550.199219 89.15625 C 550.039062 89.640625 549.878906 90.125 549.558594 90.605469 C 549.238281 91.253906 548.917969 91.738281 548.4375 92.222656 C 547.796875 93.027344 547.15625 93.671875 546.355469 94.320312 C 545.554688 94.964844 544.753906 95.609375 543.953125 96.09375 C 542.03125 97.0625 539.949219 97.867188 537.867188 98.511719 C 535.945312 99.160156 533.863281 99.644531 531.9375 99.964844 C 529.855469 100.289062 527.773438 100.609375 525.53125 100.773438 C 521.367188 101.257812 517.203125 101.578125 513.039062 101.578125 C 510.957031 101.578125 508.875 101.578125 506.949219 101.578125 L 500.863281 101.742188 C 496.699219 101.742188 492.535156 101.742188 488.371094 101.742188 C 485.96875 101.742188 483.5625 101.742188 481 101.742188 C 476.835938 101.902344 472.671875 102.226562 468.507812 102.386719 C 464.34375 102.546875 460.175781 102.546875 456.011719 102.386719 C 453.929688 102.386719 451.847656 102.226562 449.765625 102.226562 C 447.683594 102.226562 445.441406 102.386719 443.359375 102.386719 C 439.355469 102.546875 435.347656 102.546875 431.34375 102.546875 C 427.339844 102.546875 423.335938 102.226562 419.332031 102.386719 C 415.328125 102.546875 411 102.707031 406.835938 102.871094 C 402.671875 103.03125 398.667969 103.03125 394.503906 103.191406 C 390.660156 103.355469 386.8125 103.515625 382.96875 103.355469 C 382.167969 103.355469 381.367188 103.355469 380.566406 103.355469 L 379.125 103.355469 C 375.921875 103.515625 372.71875 103.675781 369.515625 103.675781 Z M 367.59375 103.675781 " fill-opacity="1" fill-rule="nonzero"/></g><g clip-path="url(#9dcd0c3fb4)"><path fill="#ecc8f6" d="M 45.792969 327.652344 C 47.328125 323.171875 58.609375 323.171875 60.011719 327.652344 C 61.414062 332.128906 56.101562 350.039062 54.207031 354.519531 L 50.808594 354.519531 C 48.914062 350.039062 44.257812 332.128906 45.792969 327.652344 Z M 45.792969 327.652344 " fill-opacity="1" fill-rule="evenodd"/></g><g clip-path="url(#b39793d407)"><path fill="#ecc8f6" d="M 59.695312 385.222656 C 58.136719 389.664062 46.671875 389.664062 45.246094 385.222656 C 43.820312 380.777344 49.21875 363.007812 51.144531 358.566406 L 54.597656 358.566406 C 56.523438 363.007812 61.253906 380.777344 59.695312 385.222656 Z M 59.695312 385.222656 " fill-opacity="1" fill-rule="evenodd"/></g><g clip-path="url(#76ce2340d6)"><path fill="#ecc8f6" d="M 81.214844 349.117188 C 85.621094 350.675781 85.621094 362.140625 81.214844 363.566406 C 76.804688 364.992188 59.175781 359.59375 54.769531 357.667969 L 54.769531 354.214844 C 59.175781 352.289062 76.804688 347.558594 81.214844 349.117188 Z M 81.214844 349.117188 " fill-opacity="1" fill-rule="evenodd"/></g><g clip-path="url(#c5f4a97242)"><path fill="#ecc8f6" d="M 23.800781 362.0625 C 19.394531 360.503906 19.394531 349.039062 23.800781 347.613281 C 28.210938 346.191406 45.839844 351.585938 50.246094 353.515625 L 50.246094 356.964844 C 45.839844 358.890625 28.210938 363.621094 23.800781 362.0625 Z M 23.800781 362.0625 " fill-opacity="1" fill-rule="evenodd"/></g><path fill="#ecc8f6" d="M 65.535156 329.460938 C 69.492188 326.867188 78.472656 333.800781 76.855469 338.203125 C 75.234375 342.605469 60.074219 353.496094 55.832031 355.871094 L 53.125 353.785156 C 54.351562 349.078125 61.582031 332.058594 65.535156 329.460938 Z M 65.535156 329.460938 " fill-opacity="1" fill-rule="evenodd"/><path fill="#ecc8f6" d="M 75.929688 372.691406 C 77.824219 377.027344 69.472656 384.714844 65.40625 382.375 C 61.339844 380.039062 53.160156 363.261719 51.53125 358.675781 L 54.046875 356.363281 C 58.476562 358.363281 74.035156 368.355469 75.929688 372.691406 Z M 75.929688 372.691406 " fill-opacity="1" fill-rule="evenodd"/><path fill="#ecc8f6" d="M 38.722656 329.179688 C 34.765625 326.585938 25.785156 333.519531 27.40625 337.921875 C 29.023438 342.324219 44.1875 353.214844 48.429688 355.589844 L 51.132812 353.5 C 49.90625 348.796875 42.679688 331.777344 38.722656 329.179688 Z M 38.722656 329.179688 " fill-opacity="1" fill-rule="evenodd"/><path fill="#ecc8f6" d="M 27.59375 372.972656 C 25.699219 377.308594 34.046875 384.996094 38.113281 382.660156 C 42.179688 380.320312 50.363281 363.542969 51.988281 358.960938 L 49.476562 356.644531 C 45.042969 358.644531 29.484375 368.636719 27.59375 372.972656 Z M 27.59375 372.972656 " fill-opacity="1" fill-rule="evenodd"/><path fill="#ffffff" d="M 48.582031 356.183594 C 48.582031 354.082031 50.390625 352.378906 52.628906 352.378906 C 54.863281 352.378906 56.671875 354.082031 56.671875 356.183594 C 56.671875 358.289062 54.863281 359.992188 52.628906 359.992188 C 50.390625 359.992188 48.582031 358.289062 48.582031 356.183594 Z M 48.582031 356.183594 " fill-opacity="1" fill-rule="evenodd"/><g clip-path="url(#765aa20a29)"><path fill="#cb6ce6" d="M 67.894531 377.308594 C 71.75 366.0625 100.085938 366.0625 103.605469 377.308594 C 107.128906 388.558594 93.785156 433.542969 89.027344 444.792969 L 80.492188 444.792969 C 75.734375 433.542969 64.042969 388.558594 67.894531 377.308594 Z M 67.894531 377.308594 " fill-opacity="1" fill-rule="evenodd"/></g><g clip-path="url(#f7c930140c)"><path fill="#cb6ce6" d="M 156.859375 431.226562 C 167.933594 435.140625 167.933594 463.9375 156.859375 467.515625 C 145.789062 471.09375 101.511719 457.535156 90.441406 452.699219 L 90.441406 444.03125 C 101.511719 439.191406 145.789062 427.3125 156.859375 431.226562 Z M 156.859375 431.226562 " fill-opacity="1" fill-rule="evenodd"/></g><path fill="#cb6ce6" d="M 12.660156 463.742188 C 1.589844 459.824219 1.589844 431.03125 12.660156 427.453125 C 23.734375 423.875 68.011719 437.429688 79.082031 442.269531 L 79.082031 450.9375 C 68.011719 455.773438 23.734375 467.65625 12.660156 463.742188 Z M 12.660156 463.742188 " fill-opacity="1" fill-rule="evenodd"/><path fill="#cb6ce6" d="M 117.484375 381.859375 C 127.417969 375.339844 149.976562 392.761719 145.910156 403.816406 C 141.847656 414.875 103.761719 442.226562 93.105469 448.191406 L 86.316406 442.945312 C 89.394531 431.128906 107.550781 388.382812 117.484375 381.859375 Z M 117.484375 381.859375 " fill-opacity="1" fill-rule="evenodd"/><path fill="#cb6ce6" d="M 143.589844 490.4375 C 148.34375 501.328125 127.375 520.628906 117.160156 514.761719 C 106.945312 508.890625 86.394531 466.746094 82.308594 455.238281 L 88.625 449.425781 C 99.753906 454.453125 138.832031 479.546875 143.589844 490.4375 Z M 143.589844 490.4375 " fill-opacity="1" fill-rule="evenodd"/><path fill="#cb6ce6" d="M 50.136719 381.152344 C 40.203125 374.628906 17.644531 392.054688 21.710938 403.109375 C 25.777344 414.164062 63.859375 441.519531 74.515625 447.484375 L 81.308594 442.238281 C 78.230469 430.421875 60.074219 387.675781 50.136719 381.152344 Z M 50.136719 381.152344 " fill-opacity="1" fill-rule="evenodd"/><path fill="#ffffff" d="M 74.898438 448.976562 C 74.898438 443.695312 79.449219 439.414062 85.058594 439.414062 C 90.671875 439.414062 95.222656 443.695312 95.222656 448.976562 C 95.222656 454.261719 90.671875 458.542969 85.058594 458.542969 C 79.449219 458.542969 74.898438 454.261719 74.898438 448.976562 Z M 74.898438 448.976562 " fill-opacity="1" fill-rule="evenodd"/><g clip-path="url(#8a895c71d8)"><g clip-path="url(#a12797bce5)"><g clip-path="url(#d00c2348c0)"><path fill="#cb6ce6" d="M 0.222656 -94.296875 C 3.464844 -88.804688 27.261719 -47.234375 9.710938 -10.988281 C -0.640625 10.382812 -22.074219 23.003906 -36.941406 31.78125 C -50.253906 39.617188 -62.359375 44.226562 -71.011719 46.949219 C -62.632812 65.320312 -54.207031 83.714844 -45.828125 102.085938 C -31.832031 96.492188 -12.574219 87.261719 7.585938 71.984375 C 15.300781 66.121094 41.953125 45.953125 56.550781 20.886719 C 89.742188 -35.929688 56.160156 -109.273438 51.09375 -119.957031 C 34.117188 -111.421875 17.1875 -102.863281 0.222656 -94.296875 Z M 0.222656 -94.296875 " fill-opacity="1" fill-rule="nonzero"/></g></g></g><g clip-path="url(#013c3c45ed)"><g clip-path="url(#83c6d8a104)"><g clip-path="url(#bedc0b900f)"><path fill="#ecc8f6" d="M 56.074219 -49.929688 C 59.316406 -44.4375 83.113281 -2.867188 65.5625 33.378906 C 55.210938 54.75 33.777344 67.371094 18.910156 76.148438 C 5.597656 83.984375 -6.507812 88.59375 -15.160156 91.316406 C -6.78125 109.6875 1.644531 128.078125 10.023438 146.449219 C 24.019531 140.855469 43.277344 131.628906 63.4375 116.351562 C 71.152344 110.488281 97.804688 90.316406 112.402344 65.253906 C 145.59375 8.4375 112.011719 -64.90625 106.945312 -75.589844 C 89.96875 -67.054688 73.039062 -58.5 56.074219 -49.929688 Z M 56.074219 -49.929688 " fill-opacity="1" fill-rule="nonzero"/></g></g></g><g clip-path="url(#7265fafcec)"><path fill="#ecc8f6" d="M 859.703125 23.523438 C 861.238281 19.042969 872.523438 19.042969 873.925781 23.523438 C 875.324219 28.003906 870.015625 45.914062 868.117188 50.390625 L 864.722656 50.390625 C 862.824219 45.914062 858.171875 28.003906 859.703125 23.523438 Z M 859.703125 23.523438 " fill-opacity="1" fill-rule="evenodd"/></g><g clip-path="url(#aa3df27ece)"><path fill="#ecc8f6" d="M 873.605469 81.09375 C 872.046875 85.539062 860.582031 85.539062 859.160156 81.09375 C 857.734375 76.652344 863.132812 58.882812 865.058594 54.4375 L 868.507812 54.4375 C 870.4375 58.882812 875.167969 76.652344 873.605469 81.09375 Z M 873.605469 81.09375 " fill-opacity="1" fill-rule="evenodd"/></g><g clip-path="url(#55a05280e0)"><path fill="#ecc8f6" d="M 895.125 44.988281 C 899.535156 46.546875 899.535156 58.011719 895.125 59.4375 C 890.71875 60.863281 873.089844 55.464844 868.679688 53.539062 L 868.679688 50.085938 C 873.089844 48.160156 890.71875 43.429688 895.125 44.988281 Z M 895.125 44.988281 " fill-opacity="1" fill-rule="evenodd"/></g><g clip-path="url(#4e4912d643)"><path fill="#ecc8f6" d="M 837.714844 57.933594 C 833.304688 56.375 833.304688 44.910156 837.714844 43.488281 C 842.121094 42.0625 859.75 47.460938 864.160156 49.386719 L 864.160156 52.835938 C 859.75 54.761719 842.121094 59.492188 837.714844 57.933594 Z M 837.714844 57.933594 " fill-opacity="1" fill-rule="evenodd"/></g><path fill="#ecc8f6" d="M 879.449219 25.335938 C 883.40625 22.738281 892.386719 29.675781 890.765625 34.078125 C 889.148438 38.480469 873.984375 49.367188 869.742188 51.742188 L 867.039062 49.65625 C 868.265625 44.949219 875.492188 27.929688 879.449219 25.335938 Z M 879.449219 25.335938 " fill-opacity="1" fill-rule="evenodd"/><path fill="#ecc8f6" d="M 889.84375 68.5625 C 891.734375 72.902344 883.386719 80.585938 879.320312 78.25 C 875.253906 75.914062 867.070312 59.132812 865.445312 54.550781 L 867.957031 52.234375 C 872.390625 54.238281 887.949219 64.226562 889.84375 68.5625 Z M 889.84375 68.5625 " fill-opacity="1" fill-rule="evenodd"/><path fill="#ecc8f6" d="M 852.636719 25.054688 C 848.679688 22.457031 839.699219 29.394531 841.316406 33.796875 C 842.933594 38.195312 858.097656 49.085938 862.339844 51.460938 L 865.046875 49.375 C 863.820312 44.667969 856.589844 27.648438 852.636719 25.054688 Z M 852.636719 25.054688 " fill-opacity="1" fill-rule="evenodd"/><path fill="#ecc8f6" d="M 841.503906 68.847656 C 839.609375 73.183594 847.960938 80.867188 852.027344 78.53125 C 856.09375 76.195312 864.277344 59.414062 865.902344 54.832031 L 863.386719 52.519531 C 858.957031 54.519531 843.398438 64.507812 841.503906 68.847656 Z M 841.503906 68.847656 " fill-opacity="1" fill-rule="evenodd"/><path fill="#ffffff" d="M 862.492188 52.058594 C 862.492188 49.953125 864.304688 48.25 866.539062 48.25 C 868.773438 48.25 870.585938 49.953125 870.585938 52.058594 C 870.585938 54.160156 868.773438 55.867188 866.539062 55.867188 C 864.304688 55.867188 862.492188 54.160156 862.492188 52.058594 Z M 862.492188 52.058594 " fill-opacity="1" fill-rule="evenodd"/></svg>